<?xml version="1.0" standalone="no"?><!DOCTYPE svg PUBLIC "-//W3C//DTD SVG 1.1//EN" "http://www.w3.org/Graphics/SVG/1.1/DTD/svg11.dtd"><svg t="1691980633101" class="icon" viewBox="0 0 1048 1024" version="1.1" xmlns="http://www.w3.org/2000/svg" p-id="2271" xmlns:xlink="http://www.w3.org/1999/xlink" width="204.6875" height="200"><path d="M762.79672156 991.76585375a103.1882925 103.1882925 0 0 1-48.30439031-12.17560969l-191.08682906-102.32195156-190.80585375 101.85365906a103.91414625 103.91414625 0 0 1-109.74439031-8.1951225 106.0682925 106.0682925 0 0 1-41.30341407-103.02439031l36.43317094-215.88292688-154.65365906-152.66341406a106.93463438 106.93463438 0 0 1-26.31804844-108.64390312 105.22536563 105.22536563 0 0 1 84.29268281-71.88292594l213.28390219-31.37561062 95.5082925-196.21463344a103.53951187 103.53951187 0 0 1 186.82536656-0.23414625l95.29756032 196.91707312 213.37756125 31.37560969a103.63317094 103.63317094 0 0 1 84.17560968 71.88292687 106.18536563 106.18536563 0 0 1-26.27121937 108.40975594l-154.536585 152.89756125 36.29268281 215.64877969a107.0282925 107.0282925 0 0 1-41.37365906 103.25853656 101.36195156 101.36195156 0 0 1-61.08878063 20.37073219z m-239.36780437-215.64878063a45.28390219 45.28390219 0 0 1 21.82243875 5.61951188l212.74536562 113.7951225a9.36585375 9.36585375 0 0 0 10.79414719-0.70243875 10.98146344 10.98146344 0 0 0 4.35512156-10.53658594l-40.43707312-240.4682925a48.21073125 48.21073125 0 0 1 13.46341406-42.14634187l172.05073219-170.22439032a10.70048812 10.70048812 0 0 0 2.57560968-11.0048775 10.18536562 10.18536562 0 0 0-8.35902468-7.02439031l-237.98634094-35.12195156a47.04 47.04 0 0 1-35.30926875-25.99024406l-106.02146344-218.92682907a11.0282925 11.0282925 0 0 0-19.01268281-0.23414625l-106.41951187 218.69268282a46.5482925 46.5482925 0 0 1-35.26243876 25.99024406l-237.79902468 35.12195156a10.63024406 10.63024406 0 0 0-8.59317094 7.25853656 10.98146344 10.98146344 0 0 0 2.73951188 11.0048775l172.16780531 170.22439032a47.55512156 47.55512156 0 0 1 13.48682906 41.91219562L273.87574625 883.82439031a10.98146344 10.98146344 0 0 0 4.23804844 10.536585 9.1082925 9.1082925 0 0 0 10.93463437 0.70243969l212.60487844-113.56097625a47.69560969 47.69560969 0 0 1 21.77560969-5.38536563z m-157.72097532-445.34634187z" p-id="2272"></path></svg>