<?xml version="1.0" standalone="no"?><!DOCTYPE svg PUBLIC "-//W3C//DTD SVG 1.1//EN" "http://www.w3.org/Graphics/SVG/1.1/DTD/svg11.dtd"><svg t="1691980803012" class="icon" viewBox="0 0 1024 1024" version="1.1" xmlns="http://www.w3.org/2000/svg" p-id="2414" xmlns:xlink="http://www.w3.org/1999/xlink" width="200" height="200"><path d="M301.2 935.1c-31.2 15.6-68.6 0-84.2-31.2-6.2-9.4-6.2-21.8-6.2-34.3l28.1-230.7-159-171.5C58 442.4 58 401.9 83 380.1c9.4-6.2 18.7-12.5 31.2-15.6l227.6-46.8L457.2 115c15.6-31.2 56.1-40.5 84.2-24.9 9.4 6.2 18.7 12.5 24.9 24.9l115.4 202.7 227.6 46.8c34.3 6.2 56.1 40.5 49.9 74.8-3.1 12.5-6.2 21.8-15.6 31.2L784.5 642l28.1 230.7c3.1 34.3-21.8 65.5-56.1 68.6-12.5 0-21.8 0-34.3-6.2l-212-96.7-209 96.7z m0 0" fill="#f09843" p-id="2415"></path></svg>