<?xml version="1.0" standalone="no"?><!DOCTYPE svg PUBLIC "-//W3C//DTD SVG 1.1//EN" "http://www.w3.org/Graphics/SVG/1.1/DTD/svg11.dtd"><svg t="1692344171182" class="icon" viewBox="0 0 1024 1024" version="1.1" xmlns="http://www.w3.org/2000/svg" p-id="4020" xmlns:xlink="http://www.w3.org/1999/xlink" width="1000" height="1000"><path d="M896 789.333333v106.666667a42.666667 42.666667 0 0 1-42.666667 42.666667H170.666667a42.666667 42.666667 0 0 1-42.666667-42.666667v-106.666667a21.333333 21.333333 0 0 1 21.333333-21.333333h42.666667a21.333333 21.333333 0 0 1 21.333333 21.333333v64h597.333334v-64a21.333333 21.333333 0 0 1 21.333333-21.333333h42.666667a21.333333 21.333333 0 0 1 21.333333 21.333333z m-341.333333-190.485333l128.426666-128.426667a21.333333 21.333333 0 0 1 30.186667 0l30.165333 30.165334a21.333333 21.333333 0 0 1 0 30.165333l-211.2 211.2a21.269333 21.269333 0 0 1-30.144 0l-211.2-211.2a21.333333 21.333333 0 0 1 0-30.165333l30.165334-30.186667a21.333333 21.333333 0 0 1 30.186666 0L469.333333 588.501333V128a21.333333 21.333333 0 0 1 21.333334-21.333333h42.666666a21.333333 21.333333 0 0 1 21.333334 21.333333v470.848z" p-id="4021"></path></svg>