<?xml version="1.0" standalone="no"?><!DOCTYPE svg PUBLIC "-//W3C//DTD SVG 1.1//EN" "http://www.w3.org/Graphics/SVG/1.1/DTD/svg11.dtd"><svg t="1689216393659" class="icon" viewBox="0 0 1024 1024" version="1.1" xmlns="http://www.w3.org/2000/svg" p-id="3625" width="32" height="32" xmlns:xlink="http://www.w3.org/1999/xlink"><path d="M512 278.7c21.4 0 38.9 17.3 38.9 38.9s-17.3 38.9-38.9 38.9c-21.4 0-38.9-17.3-38.9-38.9s17.5-38.9 38.9-38.9zM512 774.5c-16.1 0-29.1-13-29.1-29.1V434.2c0-16.1 13-29.1 29.1-29.1s29.1 13 29.1 29.1v311.1c0 16.1-13 29.2-29.1 29.2z" p-id="3626" fill="#ffffff"></path><path d="M512 930C281.5 930 94 742.5 94 512S281.5 94 512 94s418 187.5 418 418-187.5 418-418 418z m0-777.7c-198.4 0-359.7 161.4-359.7 359.7S313.6 871.7 512 871.7 871.7 710.4 871.7 512 710.4 152.3 512 152.3z" p-id="3627" fill="#ffffff"></path></svg>