<?xml version="1.0" standalone="no"?><!DOCTYPE svg PUBLIC "-//W3C//DTD SVG 1.1//EN" "http://www.w3.org/Graphics/SVG/1.1/DTD/svg11.dtd"><svg t="1692084937902" class="icon" viewBox="0 0 1024 1024" version="1.1" xmlns="http://www.w3.org/2000/svg" p-id="9161" xmlns:xlink="http://www.w3.org/1999/xlink" width="200" height="200"><path d="M511.333333 35.6c-265.6 0-476.8 211.2-476.8 476.8s211.2 476.8 476.8 476.8 476.8-211.2 476.8-476.8S776.933333 35.6 511.333333 35.6z m0 740.4c-35.466667 0-59.333333-23.733333-59.333333-59.333333 0-35.466667 23.733333-59.333333 59.333333-59.333334s59.333333 23.733333 59.333334 59.333334c-0.133333 35.6-23.866667 59.333333-59.333334 59.333333z m68-461.066667l-27.2 231.6c0 20.533333-20.533333 34-40.8 34-20.533333 0-40.8-13.6-40.8-34l-27.2-231.6c-6.8-40.8 20.533333-68.133333 61.333334-74.933333h6.8c40.666667-0.133333 67.866667 27.2 67.866666 74.933333z" fill="#F7BD21" p-id="9162"></path></svg>