<svg xmlns="http://www.w3.org/2000/svg" xmlns:xlink="http://www.w3.org/1999/xlink" width="84.7470703125" height="84.56005859375" viewBox="0 0 84.7470703125 84.56005859375" fill="none"><g opacity="1"  transform="translate(0 0)  rotate(0)"><path id="矩形" fill-rule="evenodd" style="fill:#000000" opacity="0" d="M0.74707 84L84.7471 84L84.7471 0L0.74707 0L0.74707 84Z"></path><path id="形状" fill-rule="evenodd" style="fill:#3397FF" opacity="1" d="M42,84.5601c-23.05,0 -42,-18.74 -42,-42c0,-23.26 18.74,-42.00004 42,-42.00004c23.05,0 42,18.74004 42,42.00004c0,23.26 -18.74,42 -42,42zM64.2171,50.0268l-19.79,-8.96v-18.48c0,-1.49 -1.31,-2.8 -2.8,-2.8c-1.49,0 -2.8,1.31 -2.8,2.8v20.16c0,1.12 0.75,2.24 1.68,2.62l21.47,9.7c0.37,0.19 0.74,0.19 1.12,0.19c1.12,0 2.05,-0.56 2.61,-1.68c0.56,-1.5 0,-2.99 -1.49,-3.55z"></path></g></svg>